<?xml version="1.0" standalone="no"?>
<!DOCTYPE svg PUBLIC "-//W3C//DTD SVG 20010904//EN"
 "http://www.w3.org/TR/2001/REC-SVG-20010904/DTD/svg10.dtd">
<svg version="1.0" xmlns="http://www.w3.org/2000/svg"
 width="398.000000pt" height="398.000000pt" viewBox="0 0 398.000000 398.000000"
 preserveAspectRatio="xMidYMid meet">
<metadata>
Created by potrace 1.14, written by Peter Selinger 2001-2017
</metadata>
<g transform="translate(0.000000,398.000000) scale(0.100000,-0.100000)"
fill="#000000" stroke="none">
<path d="M2094 2654 c-5 -27 -10 -34 -23 -28 -41 17 -51 16 -51 -2 0 -16 -8
-19 -58 -20 -63 0 -115 -20 -91 -35 7 -4 11 -10 9 -12 -16 -15 -93 -47 -112
-47 -43 0 -201 -197 -255 -319 -31 -69 -76 -246 -98 -381 -27 -166 -20 -151
-55 -133 -37 18 -68 12 -108 -22 -40 -33 -62 -92 -72 -193 -10 -99 -1 -162 39
-259 20 -49 37 -74 62 -91 33 -23 34 -25 31 -85 -9 -173 76 -361 237 -523 34
-34 61 -67 61 -73 0 -7 -7 -25 -15 -40 -13 -27 -20 -29 -152 -50 -76 -12 -149
-21 -163 -21 -35 0 -120 -42 -148 -73 -22 -23 -22 -26 -6 -35 14 -8 26 -3 54
19 33 27 54 32 199 55 90 14 164 24 166 22 2 -2 0 -22 -6 -45 -11 -52 1 -175
19 -181 9 -3 12 19 12 90 0 89 2 97 40 173 22 44 42 101 46 128 7 53 27 63 46
22 9 -19 8 -42 -2 -96 -13 -68 -13 -72 6 -86 12 -9 33 -13 55 -10 43 6 225
108 285 161 43 37 74 43 74 13 0 -26 -72 -97 -156 -153 -46 -31 -81 -60 -78
-65 6 -11 5 -11 95 48 37 24 87 66 113 93 26 28 51 48 57 45 38 -24 -55 -145
-158 -207 -69 -40 -87 -58 -62 -58 26 0 138 76 182 123 42 46 46 48 36 22 -21
-59 -70 -122 -123 -159 -60 -42 -92 -73 -83 -82 8 -9 155 104 175 134 8 12 17
20 19 18 10 -9 -40 -81 -96 -139 -52 -54 -54 -57 -29 -57 19 0 40 15 75 54 27
29 63 60 79 69 52 27 95 81 101 126 5 39 8 42 32 37 14 -3 112 -17 216 -32
206 -29 256 -46 283 -95 19 -32 21 -33 41 -20 36 23 -52 111 -128 130 -75 19
-468 71 -487 65 -40 -15 -6 6 83 51 119 59 213 148 272 258 40 72 45 77 75 77
70 0 190 114 249 238 35 72 42 99 46 159 3 72 3 73 -32 108 -25 25 -44 35 -66
35 -17 0 -31 2 -31 4 0 2 13 35 29 72 65 154 106 358 98 489 -6 102 -50 240
-90 284 -13 14 -37 53 -53 86 -18 37 -56 86 -101 131 -39 40 -82 92 -94 116
-32 63 -97 145 -134 168 -43 26 -46 25 -38 -10 l6 -30 -74 35 c-69 33 -119 45
-119 28 0 -5 9 -19 20 -33 28 -36 25 -39 -21 -29 -51 12 -88 31 -113 58 -26
29 -34 26 -42 -15z m-147 -570 c252 -93 297 -105 488 -134 205 -30 253 -46
299 -100 34 -41 40 -69 31 -138 -15 -113 -14 -166 3 -204 10 -21 25 -40 35
-43 24 -9 22 -16 -23 -134 -23 -57 -49 -141 -60 -186 -11 -45 -30 -111 -43
-146 -45 -117 -154 -333 -195 -385 -43 -54 -125 -115 -209 -158 -63 -31 -80
-32 -88 -6 -3 11 -11 20 -16 20 -5 0 -14 11 -19 25 -5 14 -22 30 -36 35 -30
12 -27 13 -115 -58 -29 -24 -73 -54 -98 -67 -45 -22 -47 -22 -101 -6 -53 16
-55 18 -52 48 2 17 -4 45 -12 61 -27 52 -106 61 -106 12 0 -31 -13 -24 -66 33
-144 153 -204 287 -204 457 0 144 19 342 40 424 15 56 60 329 60 362 0 1 8 0
18 -3 12 -3 25 4 36 22 9 14 21 23 25 21 11 -7 44 30 37 42 -3 5 4 18 15 28
11 10 17 24 15 31 -3 7 2 19 10 28 8 8 13 19 9 25 -10 16 46 90 84 110 57 30
125 25 238 -16z m-589 -460 c16 -11 22 -25 22 -52 0 -49 -15 -73 -23 -40 -8
32 -46 80 -57 73 -5 -3 2 -22 16 -42 13 -20 20 -39 16 -42 -24 -15 -52 -79
-51 -116 l1 -40 7 35 c8 36 37 100 47 100 12 0 20 -47 13 -74 -5 -15 -13 -62
-19 -104 -6 -42 -13 -78 -15 -81 -3 -2 -12 4 -20 15 -8 10 -15 14 -15 8 0 -6
9 -19 20 -29 13 -12 20 -31 20 -57 0 -34 -2 -38 -18 -29 -10 5 -32 43 -48 83
-26 65 -29 85 -29 178 0 78 5 117 18 153 28 71 69 93 115 61z m1538 -399 c13
-19 15 -38 11 -77 -7 -52 -61 -179 -96 -224 -28 -35 -122 -110 -149 -119 -23
-7 -23 -7 -7 30 8 21 15 39 15 41 0 2 11 4 23 4 13 0 32 10 43 23 19 22 19 22
-2 5 -11 -10 -27 -18 -36 -18 -12 0 -9 16 18 83 19 45 34 89 34 97 0 22 30 61
41 55 12 -8 11 -67 -2 -102 -10 -27 -9 -27 8 -10 14 13 18 33 18 82 0 63 1 65
33 82 17 10 32 21 32 25 0 16 -29 7 -70 -23 -30 -22 -41 -26 -37 -14 4 9 7 23
7 31 0 24 39 54 70 54 21 0 35 -8 46 -25z m-666 -925 c0 -21 -11 -42 -36 -68
-25 -26 -32 -30 -24 -13 7 12 9 32 7 43 -9 31 10 68 33 68 16 0 20 -7 20 -30z"/>
<path d="M1700 1777 c-48 -13 -110 -47 -129 -71 -9 -11 4 -9 51 6 100 31 169
22 293 -41 55 -28 104 -51 108 -51 4 0 7 13 7 29 0 22 -9 37 -33 55 -88 67
-211 97 -297 73z"/>
<path d="M2246 1542 c-35 -40 -17 -49 111 -55 142 -6 195 -22 263 -84 27 -25
50 -42 50 -39 0 4 -11 29 -25 56 -46 91 -123 129 -280 137 -92 5 -101 4 -119
-15z"/>
<path d="M1583 1535 c-17 -9 -39 -25 -48 -35 -16 -18 -16 -21 4 -53 78 -127
214 -173 370 -126 41 12 42 14 37 43 -12 59 -58 119 -116 150 -69 37 -194 48
-247 21z m127 -25 c0 -5 -9 -10 -19 -10 -11 0 -23 5 -26 10 -4 6 5 10 19 10
14 0 26 -4 26 -10z m-101 -17 c-9 -54 34 -103 88 -103 40 0 93 45 93 79 0 25
3 25 39 6 53 -27 105 -105 84 -126 -5 -5 -37 -15 -71 -21 -113 -21 -227 25
-267 108 -17 36 -17 38 1 51 20 14 35 17 33 6z"/>
<path d="M2275 1361 c-22 -10 -53 -33 -69 -50 l-30 -31 45 -46 c48 -49 121
-88 186 -99 73 -12 213 39 213 78 0 111 -221 206 -345 148z m240 -60 c16 -9
40 -33 53 -51 l23 -35 -27 -22 c-45 -35 -106 -48 -168 -34 -57 13 -126 52
-163 93 -21 22 -22 26 -7 44 12 15 16 16 21 5 3 -7 18 -27 33 -44 38 -43 93
-42 132 2 16 17 28 41 28 52 0 23 22 20 75 -10z"/>
<path d="M2151 1332 c-17 -32 -44 -189 -36 -209 5 -13 11 4 20 57 7 41 18 95
24 119 13 47 9 65 -8 33z"/>
<path d="M1824 1035 c-23 -35 -12 -75 20 -75 38 0 56 -10 72 -41 18 -36 56
-47 89 -25 29 19 49 20 75 4 37 -24 74 21 59 72 -7 24 -7 24 -8 -5 -2 -50 -13
-59 -54 -44 -31 11 -41 10 -78 -6 l-41 -19 -20 24 c-45 58 -49 61 -76 58 -23
-3 -27 1 -30 25 -2 16 2 35 9 43 6 8 9 14 5 14 -3 0 -13 -11 -22 -25z"/>
<path d="M1712 773 c2 -13 17 -20 58 -25 30 -5 73 -15 95 -24 22 -9 66 -20 99
-25 32 -6 71 -16 87 -24 37 -20 61 -19 57 1 -3 16 -67 39 -173 62 -27 6 -72
17 -100 25 -27 8 -67 17 -88 21 -34 6 -38 5 -35 -11z"/>
<path d="M1804 662 c10 -17 97 -42 140 -41 38 0 35 2 -29 18 -38 10 -81 21
-94 25 -15 5 -21 5 -17 -2z"/>
</g>
</svg>
